<svg width="149" height="149" viewBox="0 0 149 149" fill="none" xmlns="http://www.w3.org/2000/svg">
<g clip-path="url(#clip0_254_103)">
<path d="M57.2221 125.182C66.5621 125.182 74.1424 117.6 74.1424 108.258V91.3342H57.2221C47.8821 91.3342 40.3018 98.916 40.3018 108.258C40.3018 117.6 47.8821 125.182 57.2221 125.182Z" fill="#0ACF83"/>
<path d="M40.3018 74.4105C40.3018 65.0686 47.8821 57.4868 57.2221 57.4868H74.1424V91.3342H57.2221C47.8821 91.3342 40.3018 83.7524 40.3018 74.4105Z" fill="#A259FF"/>
<path d="M40.3018 40.563C40.3018 31.2211 47.8821 23.6393 57.2221 23.6393H74.1424V57.4867H57.2221C47.8821 57.4867 40.3018 49.9049 40.3018 40.563Z" fill="#F24E1E"/>
<path d="M74.1421 23.6394H91.0624C100.402 23.6394 107.983 31.2212 107.983 40.5631C107.983 49.905 100.402 57.4868 91.0624 57.4868H74.1421V23.6394Z" fill="#FF7262"/>
<path d="M107.983 74.4105C107.983 83.7524 100.402 91.3342 91.0624 91.3342C81.7224 91.3342 74.1421 83.7524 74.1421 74.4105C74.1421 65.0686 81.7224 57.4868 91.0624 57.4868C100.402 57.4868 107.983 65.0686 107.983 74.4105Z" fill="#1ABCFE"/>
</g>
<defs>
<clipPath id="clip0_254_103">
<rect width="67.6948" height="101.542" fill="white" transform="translate(40.2949 23.6394)"/>
</clipPath>
</defs>
</svg>
