<svg width="11" height="200" viewBox="0 0 11 200" fill="none" xmlns="http://www.w3.org/2000/svg">
<path id="Vector" d="M10.6983 100.571C10.6983 131.437 10.6983 162.313 10.6871 193.18C10.6871 194.604 11.057 196.251 10.2612 197.392C9.43181 198.585 7.42558 199.983 5.91249 200C4.38819 200.017 2.3147 198.67 1.44047 197.495C0.611074 196.38 0.91369 194.724 0.91369 193.3C0.891274 131.129 0.902488 68.9573 0.902488 6.78595C0.902488 5.78222 0.442951 4.51254 1.0706 3.84338C2.42678 2.39355 4.34335 1.25255 6.03577 -0.00854492C7.56006 1.21824 9.47665 2.28202 10.4966 3.72328C11.2027 4.72701 10.6983 6.2369 10.6983 7.52373C10.6983 38.5365 10.6983 69.5492 10.6983 100.562V100.571Z" fill="black"/>
</svg>
