<svg width="159" height="74" viewBox="0 0 159 74" fill="none" xmlns="http://www.w3.org/2000/svg">
<g id="Logo" clip-path="url(#clip0_2_4)">
<path id="Vector" d="M80.0189 4.20917C82.8968 4.17023 85.682 4.59857 88.2966 5.79271C92.5911 7.75267 94.9869 11.1441 96.0531 15.3848C96.6465 17.7453 96.8097 20.1985 97.2584 22.5961C97.6794 24.8416 98.5731 26.9146 100.107 28.7151C103.515 32.7185 108.863 33.2006 112.994 29.8592C116.334 27.1576 117.758 23.5918 118.054 19.5699C118.255 16.8553 118.409 14.1406 119.44 11.5632C121.138 7.31507 124.072 4.44096 129.095 3.97554C133.063 3.60839 136.089 5.16597 138.3 8.19213C140.395 11.0588 141.091 14.3353 141.198 17.7564C141.259 19.6571 141.628 21.5002 142.505 23.2247C144.024 26.2082 146.37 27.9512 150.056 27.8177C152.367 27.7342 154.241 28.6261 155.549 30.4804C158.109 34.1185 158.519 38.1329 157.735 42.2995C157.167 45.3145 155.981 48.1089 153.789 50.4453C152.617 51.695 151.224 52.6426 149.531 53.1525C145.064 54.4968 141.595 52.7149 140.06 48.6021C139.257 46.4512 139.049 44.0963 138.611 41.8285C138.133 39.3419 137.384 36.9648 135.669 34.9584C133.505 32.4274 130.59 31.834 127.524 33.3193C124.787 34.6451 123.363 36.9759 122.293 39.557C121.134 42.3533 120.836 45.3015 120.595 48.2591C120.05 54.9122 114.73 60.7012 108.136 61.8249C102.649 62.7613 97.9464 60.4194 95.9548 55.4926C95.1983 53.6216 94.896 51.5615 94.5771 49.5608C94.1543 46.911 93.5888 44.341 91.9514 42.0825C89.7596 39.0601 86.6963 37.738 82.8801 37.9253C76.798 38.2238 72.3328 41.5763 70.3673 47.2596C69.505 49.7518 69.2472 52.3181 69.2231 54.9252C69.1619 61.4188 66.3045 66.6052 60.6284 70.208C55.5921 73.4066 49.9383 74.6193 43.8933 73.6996C37.3161 72.6983 32.7767 68.452 31.399 62.0993C30.3049 57.0557 30.622 52.1308 33.2069 47.5044C35.3208 43.718 38.6512 41.1239 42.8067 39.5515C44.6999 38.8357 46.7285 38.3684 48.7386 38.0161C51.7073 37.4951 54.5129 36.6328 56.981 34.9863C61.5333 31.949 63.9588 27.8121 63.9068 22.4867C63.8809 19.8221 64.0107 17.1742 64.7709 14.5931C66.6679 8.1569 71.3649 4.59857 78.4539 4.21103C78.9749 4.18321 79.4979 4.20732 80.0208 4.20732L80.0189 4.20917Z" fill="black"/>
<path id="Vector_2" d="M17.9445 0C24.7276 0.174301 30.0958 1.95254 34.1901 6.66052C39.703 13.0003 40.4484 24.9232 31.7072 31.1387C26.5318 34.8175 20.6815 35.6241 14.5474 34.3985C10.0322 33.4973 6.26607 31.2648 3.44011 27.5599C-0.885993 21.8896 -1.1901 13.0726 2.86342 7.29468C5.45389 3.60098 9.19403 1.57056 13.5257 0.619325C15.2057 0.250326 16.9395 0.135361 17.9445 0Z" fill="black"/>
</g>
<defs>
<clipPath id="clip0_2_4">
<rect width="158.091" height="74" fill="white"/>
</clipPath>
</defs>
</svg>
